<mxfile host="app.diagrams.net" agent="Mozilla/5.0 (Windows NT 10.0; Win64; x64) AppleWebKit/537.36 (KHTML, like Gecko) Chrome/109.0.0.0 Safari/537.36" version="24.7.14">
  <diagram id="R2lEEEUBdFMjLlhIrx00" name="Page-1">
    <mxGraphModel dx="880" dy="484" grid="1" gridSize="10" guides="1" tooltips="1" connect="1" arrows="1" fold="1" page="1" pageScale="1" pageWidth="850" pageHeight="1100" math="0" shadow="0" extFonts="Permanent Marker^https://fonts.googleapis.com/css?family=Permanent+Marker">
      <root>
        <mxCell id="0" />
        <mxCell id="1" parent="0" />
        <mxCell id="4rlKsRQZwyyehg3YimqO-2" value="" style="endArrow=none;html=1;rounded=0;entryX=0.494;entryY=0.875;entryDx=0;entryDy=0;entryPerimeter=0;" parent="1" target="B3RAliBa8itg4HLD803y-16" edge="1">
          <mxGeometry width="50" height="50" relative="1" as="geometry">
            <mxPoint x="140.5" y="140" as="sourcePoint" />
            <mxPoint x="140.5" y="90" as="targetPoint" />
            <Array as="points" />
          </mxGeometry>
        </mxCell>
        <mxCell id="4rlKsRQZwyyehg3YimqO-6" value="Loguin" style="ellipse;whiteSpace=wrap;html=1;" parent="1" vertex="1">
          <mxGeometry x="180" y="62" width="80" height="30" as="geometry" />
        </mxCell>
        <mxCell id="4rlKsRQZwyyehg3YimqO-7" value="" style="endArrow=none;html=1;rounded=0;" parent="1" edge="1">
          <mxGeometry width="50" height="50" relative="1" as="geometry">
            <mxPoint x="173" y="136" as="sourcePoint" />
            <mxPoint x="203" y="91" as="targetPoint" />
          </mxGeometry>
        </mxCell>
        <mxCell id="4rlKsRQZwyyehg3YimqO-14" value="Nombre" style="ellipse;whiteSpace=wrap;html=1;" parent="1" vertex="1">
          <mxGeometry x="20" y="90" width="90" height="30" as="geometry" />
        </mxCell>
        <mxCell id="B3RAliBa8itg4HLD803y-1" value="Direccion" style="ellipse;whiteSpace=wrap;html=1;" parent="1" vertex="1">
          <mxGeometry x="20" y="150" width="85" height="30" as="geometry" />
        </mxCell>
        <mxCell id="B3RAliBa8itg4HLD803y-2" value="" style="endArrow=none;html=1;rounded=0;" parent="1" edge="1">
          <mxGeometry width="50" height="50" relative="1" as="geometry">
            <mxPoint x="130" y="165" as="sourcePoint" />
            <mxPoint x="105" y="164.5" as="targetPoint" />
          </mxGeometry>
        </mxCell>
        <mxCell id="B3RAliBa8itg4HLD803y-6" value="" style="endArrow=none;html=1;rounded=0;" parent="1" edge="1">
          <mxGeometry width="50" height="50" relative="1" as="geometry">
            <mxPoint x="134" y="140" as="sourcePoint" />
            <mxPoint x="84" y="120" as="targetPoint" />
          </mxGeometry>
        </mxCell>
        <mxCell id="B3RAliBa8itg4HLD803y-7" value="Fecha_nacimiento" style="ellipse;whiteSpace=wrap;html=1;" parent="1" vertex="1">
          <mxGeometry x="10" y="220" width="110" height="30" as="geometry" />
        </mxCell>
        <mxCell id="B3RAliBa8itg4HLD803y-9" value="" style="endArrow=none;html=1;rounded=0;" parent="1" edge="1">
          <mxGeometry width="50" height="50" relative="1" as="geometry">
            <mxPoint x="90" y="220" as="sourcePoint" />
            <mxPoint x="130" y="190" as="targetPoint" />
          </mxGeometry>
        </mxCell>
        <mxCell id="B3RAliBa8itg4HLD803y-14" value="" style="endArrow=none;html=1;rounded=0;" parent="1" edge="1">
          <mxGeometry width="50" height="50" relative="1" as="geometry">
            <mxPoint x="649.5" y="130" as="sourcePoint" />
            <mxPoint x="649.5" y="80" as="targetPoint" />
            <Array as="points" />
          </mxGeometry>
        </mxCell>
        <mxCell id="B3RAliBa8itg4HLD803y-16" value="Cedula&lt;hr&gt;" style="ellipse;whiteSpace=wrap;html=1;" parent="1" vertex="1">
          <mxGeometry x="101" y="45" width="80" height="40" as="geometry" />
        </mxCell>
        <mxCell id="B3RAliBa8itg4HLD803y-18" value="" style="endArrow=none;html=1;rounded=0;" parent="1" edge="1">
          <mxGeometry width="50" height="50" relative="1" as="geometry">
            <mxPoint x="738" y="102" as="sourcePoint" />
            <mxPoint x="688" y="132" as="targetPoint" />
          </mxGeometry>
        </mxCell>
        <mxCell id="B3RAliBa8itg4HLD803y-19" value="Nombre" style="ellipse;whiteSpace=wrap;html=1;" parent="1" vertex="1">
          <mxGeometry x="700" y="80" width="90" height="30" as="geometry" />
        </mxCell>
        <mxCell id="B3RAliBa8itg4HLD803y-20" value="Direccion" style="ellipse;whiteSpace=wrap;html=1;" parent="1" vertex="1">
          <mxGeometry x="715" y="145" width="85" height="30" as="geometry" />
        </mxCell>
        <mxCell id="B3RAliBa8itg4HLD803y-22" value="" style="endArrow=none;html=1;rounded=0;" parent="1" edge="1">
          <mxGeometry width="50" height="50" relative="1" as="geometry">
            <mxPoint x="715" y="160" as="sourcePoint" />
            <mxPoint x="690" y="159.5" as="targetPoint" />
          </mxGeometry>
        </mxCell>
        <mxCell id="B3RAliBa8itg4HLD803y-23" value="Fecha_nacimiento" style="ellipse;whiteSpace=wrap;html=1;" parent="1" vertex="1">
          <mxGeometry x="695" y="203" width="110" height="30" as="geometry" />
        </mxCell>
        <mxCell id="B3RAliBa8itg4HLD803y-26" value="" style="endArrow=none;html=1;rounded=0;" parent="1" edge="1">
          <mxGeometry width="50" height="50" relative="1" as="geometry">
            <mxPoint x="710" y="207" as="sourcePoint" />
            <mxPoint x="690" y="187" as="targetPoint" />
          </mxGeometry>
        </mxCell>
        <mxCell id="B3RAliBa8itg4HLD803y-27" value="" style="endArrow=none;html=1;rounded=0;" parent="1" edge="1">
          <mxGeometry width="50" height="50" relative="1" as="geometry">
            <mxPoint x="603" y="131" as="sourcePoint" />
            <mxPoint x="573" y="91" as="targetPoint" />
          </mxGeometry>
        </mxCell>
        <mxCell id="B3RAliBa8itg4HLD803y-28" value="Fecha_expedicion" style="ellipse;whiteSpace=wrap;html=1;" parent="1" vertex="1">
          <mxGeometry x="496" y="61" width="110" height="30" as="geometry" />
        </mxCell>
        <mxCell id="B3RAliBa8itg4HLD803y-31" value="" style="endArrow=none;html=1;rounded=0;" parent="1" edge="1">
          <mxGeometry width="50" height="50" relative="1" as="geometry">
            <mxPoint x="600" y="150" as="sourcePoint" />
            <mxPoint x="520" y="120" as="targetPoint" />
          </mxGeometry>
        </mxCell>
        <mxCell id="B3RAliBa8itg4HLD803y-32" value="Correo_electronico" style="ellipse;whiteSpace=wrap;html=1;" parent="1" vertex="1">
          <mxGeometry x="420" y="95" width="100" height="40" as="geometry" />
        </mxCell>
        <mxCell id="B3RAliBa8itg4HLD803y-34" value="" style="endArrow=none;html=1;rounded=0;entryX=0.5;entryY=1;entryDx=0;entryDy=0;" parent="1" edge="1">
          <mxGeometry width="50" height="50" relative="1" as="geometry">
            <mxPoint x="660" y="240" as="sourcePoint" />
            <mxPoint x="645" y="190" as="targetPoint" />
          </mxGeometry>
        </mxCell>
        <mxCell id="B3RAliBa8itg4HLD803y-36" value="" style="ellipse;whiteSpace=wrap;html=1;" parent="1" vertex="1">
          <mxGeometry x="600" y="240" width="130" height="40" as="geometry" />
        </mxCell>
        <mxCell id="B3RAliBa8itg4HLD803y-37" value="Telefonos" style="ellipse;whiteSpace=wrap;html=1;" parent="1" vertex="1">
          <mxGeometry x="605" y="245" width="120" height="30" as="geometry" />
        </mxCell>
        <mxCell id="f60cPsyJzFXe6ZBe6k3H-4" value="" style="edgeStyle=orthogonalEdgeStyle;rounded=0;orthogonalLoop=1;jettySize=auto;html=1;" parent="1" source="B3RAliBa8itg4HLD803y-39" target="f60cPsyJzFXe6ZBe6k3H-5" edge="1">
          <mxGeometry relative="1" as="geometry">
            <mxPoint x="460" y="490" as="targetPoint" />
          </mxGeometry>
        </mxCell>
        <mxCell id="f60cPsyJzFXe6ZBe6k3H-18" style="edgeStyle=orthogonalEdgeStyle;rounded=0;orthogonalLoop=1;jettySize=auto;html=1;exitX=0;exitY=0.75;exitDx=0;exitDy=0;" parent="1" source="B3RAliBa8itg4HLD803y-39" target="f60cPsyJzFXe6ZBe6k3H-19" edge="1">
          <mxGeometry relative="1" as="geometry">
            <mxPoint x="570" y="340" as="targetPoint" />
          </mxGeometry>
        </mxCell>
        <mxCell id="B3RAliBa8itg4HLD803y-39" value="Propietario" style="rounded=0;whiteSpace=wrap;html=1;" parent="1" vertex="1">
          <mxGeometry x="600" y="130" width="95" height="60" as="geometry" />
        </mxCell>
        <mxCell id="f60cPsyJzFXe6ZBe6k3H-3" style="edgeStyle=orthogonalEdgeStyle;rounded=0;orthogonalLoop=1;jettySize=auto;html=1;exitX=1;exitY=0.5;exitDx=0;exitDy=0;entryX=0.5;entryY=0;entryDx=0;entryDy=0;" parent="1" source="B3RAliBa8itg4HLD803y-40" target="f60cPsyJzFXe6ZBe6k3H-2" edge="1">
          <mxGeometry relative="1" as="geometry" />
        </mxCell>
        <mxCell id="B3RAliBa8itg4HLD803y-40" value="Agente Comercial" style="rounded=0;whiteSpace=wrap;html=1;" parent="1" vertex="1">
          <mxGeometry x="125" y="135" width="105" height="60" as="geometry" />
        </mxCell>
        <mxCell id="f60cPsyJzFXe6ZBe6k3H-1" style="edgeStyle=orthogonalEdgeStyle;rounded=0;orthogonalLoop=1;jettySize=auto;html=1;exitX=1;exitY=0.5;exitDx=0;exitDy=0;entryX=0.5;entryY=1;entryDx=0;entryDy=0;" parent="1" edge="1">
          <mxGeometry relative="1" as="geometry">
            <mxPoint x="380" y="305" as="targetPoint" />
            <mxPoint x="215" y="475" as="sourcePoint" />
          </mxGeometry>
        </mxCell>
        <mxCell id="f60cPsyJzFXe6ZBe6k3H-9" style="edgeStyle=orthogonalEdgeStyle;rounded=0;orthogonalLoop=1;jettySize=auto;html=1;exitX=1;exitY=0.75;exitDx=0;exitDy=0;" parent="1" target="f60cPsyJzFXe6ZBe6k3H-10" edge="1">
          <mxGeometry relative="1" as="geometry">
            <mxPoint x="262" y="610" as="targetPoint" />
            <mxPoint x="217" y="505.5" as="sourcePoint" />
            <Array as="points">
              <mxPoint x="210" y="506" />
              <mxPoint x="210" y="510" />
              <mxPoint x="275" y="510" />
            </Array>
          </mxGeometry>
        </mxCell>
        <mxCell id="f60cPsyJzFXe6ZBe6k3H-16" style="edgeStyle=orthogonalEdgeStyle;rounded=0;orthogonalLoop=1;jettySize=auto;html=1;exitX=1;exitY=0.75;exitDx=0;exitDy=0;entryX=0.5;entryY=0;entryDx=0;entryDy=0;" parent="1" edge="1">
          <mxGeometry relative="1" as="geometry">
            <mxPoint x="215" y="507.5" as="sourcePoint" />
            <mxPoint x="370" y="515" as="targetPoint" />
            <Array as="points">
              <mxPoint x="215" y="495" />
              <mxPoint x="370" y="495" />
            </Array>
          </mxGeometry>
        </mxCell>
        <mxCell id="f60cPsyJzFXe6ZBe6k3H-17" style="edgeStyle=orthogonalEdgeStyle;rounded=0;orthogonalLoop=1;jettySize=auto;html=1;exitX=1;exitY=0.25;exitDx=0;exitDy=0;" parent="1" source="B3RAliBa8itg4HLD803y-41" edge="1">
          <mxGeometry relative="1" as="geometry">
            <mxPoint x="570" y="400" as="targetPoint" />
          </mxGeometry>
        </mxCell>
        <mxCell id="B3RAliBa8itg4HLD803y-41" value="Contrato" style="rounded=0;whiteSpace=wrap;html=1;" parent="1" vertex="1">
          <mxGeometry x="125" y="470" width="90" height="50" as="geometry" />
        </mxCell>
        <mxCell id="B3RAliBa8itg4HLD803y-43" value="Codigo&lt;hr&gt;" style="ellipse;whiteSpace=wrap;html=1;" parent="1" vertex="1">
          <mxGeometry x="135" y="400" width="80" height="40" as="geometry" />
        </mxCell>
        <mxCell id="B3RAliBa8itg4HLD803y-44" value="Descripcion" style="ellipse;whiteSpace=wrap;html=1;" parent="1" vertex="1">
          <mxGeometry x="34" y="413" width="80" height="30" as="geometry" />
        </mxCell>
        <mxCell id="B3RAliBa8itg4HLD803y-48" value="" style="endArrow=none;html=1;rounded=0;" parent="1" edge="1">
          <mxGeometry width="50" height="50" relative="1" as="geometry">
            <mxPoint x="174" y="440" as="sourcePoint" />
            <mxPoint x="173.5" y="469" as="targetPoint" />
          </mxGeometry>
        </mxCell>
        <mxCell id="B3RAliBa8itg4HLD803y-50" value="" style="endArrow=none;html=1;rounded=0;exitX=0.675;exitY=0.967;exitDx=0;exitDy=0;exitPerimeter=0;" parent="1" source="B3RAliBa8itg4HLD803y-44" edge="1">
          <mxGeometry width="50" height="50" relative="1" as="geometry">
            <mxPoint x="90" y="450" as="sourcePoint" />
            <mxPoint x="125" y="470" as="targetPoint" />
          </mxGeometry>
        </mxCell>
        <mxCell id="B3RAliBa8itg4HLD803y-51" value="Tipo_contrato" style="ellipse;whiteSpace=wrap;html=1;" parent="1" vertex="1">
          <mxGeometry x="5" y="475" width="100" height="40" as="geometry" />
        </mxCell>
        <mxCell id="B3RAliBa8itg4HLD803y-56" value="" style="endArrow=none;html=1;rounded=0;" parent="1" edge="1">
          <mxGeometry width="50" height="50" relative="1" as="geometry">
            <mxPoint x="125" y="494.5" as="sourcePoint" />
            <mxPoint x="105" y="494.5" as="targetPoint" />
          </mxGeometry>
        </mxCell>
        <mxCell id="B3RAliBa8itg4HLD803y-58" value="Fecha_creacion" style="ellipse;whiteSpace=wrap;html=1;" parent="1" vertex="1">
          <mxGeometry x="7" y="521" width="110" height="30" as="geometry" />
        </mxCell>
        <mxCell id="B3RAliBa8itg4HLD803y-59" value="" style="endArrow=none;html=1;rounded=0;exitX=0.745;exitY=0.025;exitDx=0;exitDy=0;exitPerimeter=0;" parent="1" edge="1">
          <mxGeometry width="50" height="50" relative="1" as="geometry">
            <mxPoint x="94.95000000000005" y="522" as="sourcePoint" />
            <mxPoint x="124" y="501" as="targetPoint" />
          </mxGeometry>
        </mxCell>
        <mxCell id="B3RAliBa8itg4HLD803y-60" value="" style="endArrow=none;html=1;rounded=0;exitX=0.718;exitY=0.1;exitDx=0;exitDy=0;exitPerimeter=0;" parent="1" source="B3RAliBa8itg4HLD803y-62" edge="1">
          <mxGeometry width="50" height="50" relative="1" as="geometry">
            <mxPoint x="115" y="580" as="sourcePoint" />
            <mxPoint x="144" y="520" as="targetPoint" />
          </mxGeometry>
        </mxCell>
        <mxCell id="B3RAliBa8itg4HLD803y-62" value="Fecha_expiracion" style="ellipse;whiteSpace=wrap;html=1;" parent="1" vertex="1">
          <mxGeometry x="17" y="565" width="110" height="30" as="geometry" />
        </mxCell>
        <mxCell id="B3RAliBa8itg4HLD803y-63" value="" style="endArrow=none;html=1;rounded=0;entryX=0;entryY=1;entryDx=0;entryDy=0;" parent="1" edge="1">
          <mxGeometry width="50" height="50" relative="1" as="geometry">
            <mxPoint x="213" y="470" as="sourcePoint" />
            <mxPoint x="245.6446609406728" y="430.6066017177982" as="targetPoint" />
          </mxGeometry>
        </mxCell>
        <mxCell id="B3RAliBa8itg4HLD803y-64" value="Valor_venta" style="ellipse;whiteSpace=wrap;html=1;" parent="1" vertex="1">
          <mxGeometry x="226" y="403" width="100" height="30" as="geometry" />
        </mxCell>
        <mxCell id="f60cPsyJzFXe6ZBe6k3H-12" style="edgeStyle=orthogonalEdgeStyle;rounded=0;orthogonalLoop=1;jettySize=auto;html=1;exitX=0;exitY=1;exitDx=0;exitDy=0;entryX=1;entryY=0.5;entryDx=0;entryDy=0;" parent="1" source="B3RAliBa8itg4HLD803y-71" target="f60cPsyJzFXe6ZBe6k3H-10" edge="1">
          <mxGeometry relative="1" as="geometry">
            <Array as="points">
              <mxPoint x="630" y="514" />
              <mxPoint x="630" y="600" />
              <mxPoint x="313" y="600" />
            </Array>
          </mxGeometry>
        </mxCell>
        <mxCell id="B3RAliBa8itg4HLD803y-71" value="Cliente" style="rounded=0;whiteSpace=wrap;html=1;" parent="1" vertex="1">
          <mxGeometry x="620" y="454" width="110" height="60" as="geometry" />
        </mxCell>
        <mxCell id="B3RAliBa8itg4HLD803y-72" value="" style="endArrow=none;html=1;rounded=0;" parent="1" edge="1">
          <mxGeometry width="50" height="50" relative="1" as="geometry">
            <mxPoint x="669.5" y="455" as="sourcePoint" />
            <mxPoint x="669.5" y="422" as="targetPoint" />
          </mxGeometry>
        </mxCell>
        <mxCell id="B3RAliBa8itg4HLD803y-74" value="Fecha_expedicion" style="ellipse;whiteSpace=wrap;html=1;" parent="1" vertex="1">
          <mxGeometry x="228" y="91" width="110" height="30" as="geometry" />
        </mxCell>
        <mxCell id="B3RAliBa8itg4HLD803y-78" value="" style="endArrow=none;html=1;rounded=0;" parent="1" edge="1">
          <mxGeometry width="50" height="50" relative="1" as="geometry">
            <mxPoint x="225" y="134.5" as="sourcePoint" />
            <mxPoint x="260" y="120" as="targetPoint" />
          </mxGeometry>
        </mxCell>
        <mxCell id="B3RAliBa8itg4HLD803y-81" value="" style="endArrow=none;html=1;rounded=0;" parent="1" edge="1">
          <mxGeometry width="50" height="50" relative="1" as="geometry">
            <mxPoint x="130" y="250" as="sourcePoint" />
            <mxPoint x="175" y="195" as="targetPoint" />
          </mxGeometry>
        </mxCell>
        <mxCell id="B3RAliBa8itg4HLD803y-82" value="Correo_electronico" style="ellipse;whiteSpace=wrap;html=1;" parent="1" vertex="1">
          <mxGeometry x="80" y="250" width="100" height="40" as="geometry" />
        </mxCell>
        <mxCell id="B3RAliBa8itg4HLD803y-83" value="Telefono" style="ellipse;whiteSpace=wrap;html=1;" parent="1" vertex="1">
          <mxGeometry x="170" y="212" width="70" height="40" as="geometry" />
        </mxCell>
        <mxCell id="B3RAliBa8itg4HLD803y-86" value="" style="endArrow=none;html=1;rounded=0;" parent="1" edge="1">
          <mxGeometry width="50" height="50" relative="1" as="geometry">
            <mxPoint x="194" y="195" as="sourcePoint" />
            <mxPoint x="201" y="213" as="targetPoint" />
          </mxGeometry>
        </mxCell>
        <mxCell id="B3RAliBa8itg4HLD803y-87" value="Cedula&lt;hr&gt;" style="ellipse;whiteSpace=wrap;html=1;" parent="1" vertex="1">
          <mxGeometry x="610" y="40" width="80" height="40" as="geometry" />
        </mxCell>
        <mxCell id="B3RAliBa8itg4HLD803y-88" value="Cedula&lt;hr&gt;" style="ellipse;whiteSpace=wrap;html=1;" parent="1" vertex="1">
          <mxGeometry x="628" y="380" width="80" height="40" as="geometry" />
        </mxCell>
        <mxCell id="B3RAliBa8itg4HLD803y-89" value="Nombre" style="ellipse;whiteSpace=wrap;html=1;" parent="1" vertex="1">
          <mxGeometry x="735" y="401" width="90" height="30" as="geometry" />
        </mxCell>
        <mxCell id="B3RAliBa8itg4HLD803y-90" value="Direccion" style="ellipse;whiteSpace=wrap;html=1;" parent="1" vertex="1">
          <mxGeometry x="760" y="468" width="85" height="30" as="geometry" />
        </mxCell>
        <mxCell id="B3RAliBa8itg4HLD803y-91" value="Fecha_nacimiento" style="ellipse;whiteSpace=wrap;html=1;" parent="1" vertex="1">
          <mxGeometry x="735" y="519" width="110" height="30" as="geometry" />
        </mxCell>
        <mxCell id="B3RAliBa8itg4HLD803y-92" value="Fecha_expedicion" style="ellipse;whiteSpace=wrap;html=1;" parent="1" vertex="1">
          <mxGeometry x="660" y="565" width="110" height="30" as="geometry" />
        </mxCell>
        <mxCell id="B3RAliBa8itg4HLD803y-93" value="" style="endArrow=none;html=1;rounded=0;" parent="1" edge="1">
          <mxGeometry width="50" height="50" relative="1" as="geometry">
            <mxPoint x="730" y="454" as="sourcePoint" />
            <mxPoint x="755" y="429" as="targetPoint" />
          </mxGeometry>
        </mxCell>
        <mxCell id="B3RAliBa8itg4HLD803y-95" value="" style="endArrow=none;html=1;rounded=0;entryX=0;entryY=0.5;entryDx=0;entryDy=0;" parent="1" target="B3RAliBa8itg4HLD803y-90" edge="1">
          <mxGeometry width="50" height="50" relative="1" as="geometry">
            <mxPoint x="730" y="480" as="sourcePoint" />
            <mxPoint x="760" y="489" as="targetPoint" />
          </mxGeometry>
        </mxCell>
        <mxCell id="B3RAliBa8itg4HLD803y-99" value="" style="endArrow=none;html=1;rounded=0;exitX=0.5;exitY=0;exitDx=0;exitDy=0;" parent="1" edge="1">
          <mxGeometry width="50" height="50" relative="1" as="geometry">
            <mxPoint x="712" y="566" as="sourcePoint" />
            <mxPoint x="697" y="516" as="targetPoint" />
          </mxGeometry>
        </mxCell>
        <mxCell id="B3RAliBa8itg4HLD803y-100" value="" style="endArrow=none;html=1;rounded=0;" parent="1" edge="1">
          <mxGeometry width="50" height="50" relative="1" as="geometry">
            <mxPoint x="730" y="515" as="sourcePoint" />
            <mxPoint x="750" y="523" as="targetPoint" />
          </mxGeometry>
        </mxCell>
        <mxCell id="f60cPsyJzFXe6ZBe6k3H-6" style="edgeStyle=orthogonalEdgeStyle;rounded=0;orthogonalLoop=1;jettySize=auto;html=1;entryX=0.5;entryY=1;entryDx=0;entryDy=0;" parent="1" source="B3RAliBa8itg4HLD803y-101" target="f60cPsyJzFXe6ZBe6k3H-5" edge="1">
          <mxGeometry relative="1" as="geometry" />
        </mxCell>
        <mxCell id="f60cPsyJzFXe6ZBe6k3H-14" style="edgeStyle=orthogonalEdgeStyle;rounded=0;orthogonalLoop=1;jettySize=auto;html=1;exitX=0.25;exitY=0;exitDx=0;exitDy=0;" parent="1" source="B3RAliBa8itg4HLD803y-101" target="f60cPsyJzFXe6ZBe6k3H-15" edge="1">
          <mxGeometry relative="1" as="geometry">
            <mxPoint x="370" y="580" as="targetPoint" />
          </mxGeometry>
        </mxCell>
        <mxCell id="B3RAliBa8itg4HLD803y-101" value="Inmueble" style="rounded=0;whiteSpace=wrap;html=1;" parent="1" vertex="1">
          <mxGeometry x="499" y="740" width="120" height="60" as="geometry" />
        </mxCell>
        <mxCell id="B3RAliBa8itg4HLD803y-103" value="Codigo&lt;hr&gt;" style="ellipse;whiteSpace=wrap;html=1;" parent="1" vertex="1">
          <mxGeometry x="548" y="850" width="80" height="40" as="geometry" />
        </mxCell>
        <mxCell id="B3RAliBa8itg4HLD803y-104" value="Descripcion" style="ellipse;whiteSpace=wrap;html=1;" parent="1" vertex="1">
          <mxGeometry x="425" y="751" width="80" height="30" as="geometry" />
        </mxCell>
        <mxCell id="B3RAliBa8itg4HLD803y-105" value="Tipo_inmueble" style="ellipse;whiteSpace=wrap;html=1;" parent="1" vertex="1">
          <mxGeometry x="345" y="792" width="120" height="30" as="geometry" />
        </mxCell>
        <mxCell id="B3RAliBa8itg4HLD803y-106" value="Modalidad" style="ellipse;whiteSpace=wrap;html=1;" parent="1" vertex="1">
          <mxGeometry x="619" y="728" width="120" height="30" as="geometry" />
        </mxCell>
        <mxCell id="B3RAliBa8itg4HLD803y-107" value="Precio_final" style="ellipse;whiteSpace=wrap;html=1;" parent="1" vertex="1">
          <mxGeometry x="390" y="822" width="90" height="48" as="geometry" />
        </mxCell>
        <mxCell id="B3RAliBa8itg4HLD803y-109" value="estado" style="ellipse;whiteSpace=wrap;html=1;" parent="1" vertex="1">
          <mxGeometry x="655" y="880" width="70" height="30" as="geometry" />
        </mxCell>
        <mxCell id="B3RAliBa8itg4HLD803y-111" value="Foto_inmueble" style="ellipse;whiteSpace=wrap;html=1;" parent="1" vertex="1">
          <mxGeometry x="695" y="781" width="120" height="30" as="geometry" />
        </mxCell>
        <mxCell id="B3RAliBa8itg4HLD803y-114" value="Cantidad_baños" style="ellipse;whiteSpace=wrap;html=1;" parent="1" vertex="1">
          <mxGeometry x="680" y="831" width="120" height="30" as="geometry" />
        </mxCell>
        <mxCell id="B3RAliBa8itg4HLD803y-115" value="Tamaño" style="ellipse;whiteSpace=wrap;html=1;" parent="1" vertex="1">
          <mxGeometry x="448" y="880" width="100" height="30" as="geometry" />
        </mxCell>
        <mxCell id="f60cPsyJzFXe6ZBe6k3H-2" value="Gestiona" style="rhombus;whiteSpace=wrap;html=1;" parent="1" vertex="1">
          <mxGeometry x="340" y="245" width="80" height="80" as="geometry" />
        </mxCell>
        <mxCell id="f60cPsyJzFXe6ZBe6k3H-5" value="Posee" style="rhombus;whiteSpace=wrap;html=1;" parent="1" vertex="1">
          <mxGeometry x="450" y="250" width="80" height="80" as="geometry" />
        </mxCell>
        <mxCell id="f60cPsyJzFXe6ZBe6k3H-10" value="Firma" style="rhombus;whiteSpace=wrap;html=1;" parent="1" vertex="1">
          <mxGeometry x="224" y="550" width="77" height="80" as="geometry" />
        </mxCell>
        <mxCell id="f60cPsyJzFXe6ZBe6k3H-15" value="Vinculado" style="rhombus;whiteSpace=wrap;html=1;" parent="1" vertex="1">
          <mxGeometry x="330" y="515" width="80" height="80" as="geometry" />
        </mxCell>
        <mxCell id="f60cPsyJzFXe6ZBe6k3H-19" value="Asociado" style="rhombus;whiteSpace=wrap;html=1;" parent="1" vertex="1">
          <mxGeometry x="530" y="319" width="80" height="80" as="geometry" />
        </mxCell>
        <mxCell id="f60cPsyJzFXe6ZBe6k3H-20" value="(1:N)" style="text;html=1;align=center;verticalAlign=middle;whiteSpace=wrap;rounded=0;" parent="1" vertex="1">
          <mxGeometry x="290" y="270" width="60" height="30" as="geometry" />
        </mxCell>
        <mxCell id="f60cPsyJzFXe6ZBe6k3H-21" value="(1:N)" style="text;html=1;align=center;verticalAlign=middle;whiteSpace=wrap;rounded=0;" parent="1" vertex="1">
          <mxGeometry x="425" y="300" width="40" height="20" as="geometry" />
        </mxCell>
        <mxCell id="f60cPsyJzFXe6ZBe6k3H-22" value="(1:N)" style="text;html=1;align=center;verticalAlign=middle;whiteSpace=wrap;rounded=0;" parent="1" vertex="1">
          <mxGeometry x="253" y="610" width="60" height="30" as="geometry" />
        </mxCell>
        <mxCell id="f60cPsyJzFXe6ZBe6k3H-23" value="(1:N)" style="text;html=1;align=center;verticalAlign=middle;whiteSpace=wrap;rounded=0;" parent="1" vertex="1">
          <mxGeometry x="390" y="519" width="50" height="30" as="geometry" />
        </mxCell>
        <mxCell id="f60cPsyJzFXe6ZBe6k3H-24" value="(1:N)" style="text;html=1;align=center;verticalAlign=middle;whiteSpace=wrap;rounded=0;" parent="1" vertex="1">
          <mxGeometry x="600" y="340" width="60" height="30" as="geometry" />
        </mxCell>
        <mxCell id="XvDk7pVKOA5kMYXRJbSS-2" value="contrato_propietario" style="rounded=0;whiteSpace=wrap;html=1;" parent="1" vertex="1">
          <mxGeometry x="24" y="700" width="116" height="50" as="geometry" />
        </mxCell>
        <mxCell id="XvDk7pVKOA5kMYXRJbSS-3" value="contrato_cliente" style="rounded=0;whiteSpace=wrap;html=1;" parent="1" vertex="1">
          <mxGeometry x="204" y="689" width="90" height="50" as="geometry" />
        </mxCell>
        <mxCell id="XvDk7pVKOA5kMYXRJbSS-4" value="" style="endArrow=none;html=1;rounded=0;entryX=0.389;entryY=1;entryDx=0;entryDy=0;entryPerimeter=0;exitX=0.622;exitY=0;exitDx=0;exitDy=0;exitPerimeter=0;" parent="1" source="XvDk7pVKOA5kMYXRJbSS-2" edge="1">
          <mxGeometry width="50" height="50" relative="1" as="geometry">
            <mxPoint x="167" y="640" as="sourcePoint" />
            <mxPoint x="167.01" y="520" as="targetPoint" />
          </mxGeometry>
        </mxCell>
        <mxCell id="XvDk7pVKOA5kMYXRJbSS-7" value="" style="endArrow=none;html=1;rounded=0;" parent="1" edge="1">
          <mxGeometry width="50" height="50" relative="1" as="geometry">
            <mxPoint x="240" y="690" as="sourcePoint" />
            <mxPoint x="167" y="521" as="targetPoint" />
          </mxGeometry>
        </mxCell>
        <mxCell id="XvDk7pVKOA5kMYXRJbSS-8" value="Porcentaje_comision" style="ellipse;whiteSpace=wrap;html=1;" parent="1" vertex="1">
          <mxGeometry y="781" width="120" height="40" as="geometry" />
        </mxCell>
        <mxCell id="XvDk7pVKOA5kMYXRJbSS-9" value="" style="endArrow=none;html=1;rounded=0;entryX=0.25;entryY=1;entryDx=0;entryDy=0;" parent="1" source="XvDk7pVKOA5kMYXRJbSS-8" target="XvDk7pVKOA5kMYXRJbSS-2" edge="1">
          <mxGeometry width="50" height="50" relative="1" as="geometry">
            <mxPoint x="40" y="801" as="sourcePoint" />
            <mxPoint x="90" y="751" as="targetPoint" />
          </mxGeometry>
        </mxCell>
      </root>
    </mxGraphModel>
  </diagram>
</mxfile>
